<svg width="14" height="15" viewBox="0 0 14 15" fill="none" xmlns="http://www.w3.org/2000/svg">
<path d="M7.05721 9.0153L1.95304 14.1195C1.76207 14.3104 1.51902 14.4059 1.22388 14.4059C0.928738 14.4059 0.685683 14.3104 0.49471 14.1195C0.303738 13.9285 0.208252 13.6854 0.208252 13.3903C0.208252 13.0952 0.303738 12.8521 0.49471 12.6611L5.59888 7.55697L0.49471 2.4528C0.303738 2.26183 0.208252 2.01877 0.208252 1.72363C0.208252 1.42849 0.303738 1.18544 0.49471 0.994466C0.685683 0.803494 0.928738 0.708008 1.22388 0.708008C1.51902 0.708008 1.76207 0.803494 1.95304 0.994466L7.05721 6.09863L12.1614 0.994466C12.3523 0.803494 12.5954 0.708008 12.8905 0.708008C13.1857 0.708008 13.4287 0.803494 13.6197 0.994466C13.8107 1.18544 13.9062 1.42849 13.9062 1.72363C13.9062 2.01877 13.8107 2.26183 13.6197 2.4528L8.51554 7.55697L13.6197 12.6611C13.8107 12.8521 13.9062 13.0952 13.9062 13.3903C13.9062 13.6854 13.8107 13.9285 13.6197 14.1195C13.4287 14.3104 13.1857 14.4059 12.8905 14.4059C12.5954 14.4059 12.3523 14.3104 12.1614 14.1195L7.05721 9.0153Z" fill="#262626"/>
</svg>
