<svg width="32" height="33" viewBox="0 0 32 33" fill="none" xmlns="http://www.w3.org/2000/svg">
<path d="M14.6667 23.1666H9.33333C7.48889 23.1666 5.91667 22.5166 4.61667 21.2166C3.31667 19.9166 2.66667 18.3444 2.66667 16.5C2.66667 14.6555 3.31667 13.0833 4.61667 11.7833C5.91667 10.4833 7.48889 9.83331 9.33333 9.83331H14.6667V12.5H9.33333C8.22222 12.5 7.27778 12.8889 6.5 13.6666C5.72222 14.4444 5.33333 15.3889 5.33333 16.5C5.33333 17.6111 5.72222 18.5555 6.5 19.3333C7.27778 20.1111 8.22222 20.5 9.33333 20.5H14.6667V23.1666ZM10.6667 17.8333V15.1666H21.3333V17.8333H10.6667ZM17.3333 23.1666V20.5H22.6667C23.7778 20.5 24.7222 20.1111 25.5 19.3333C26.2778 18.5555 26.6667 17.6111 26.6667 16.5C26.6667 15.3889 26.2778 14.4444 25.5 13.6666C24.7222 12.8889 23.7778 12.5 22.6667 12.5H17.3333V9.83331H22.6667C24.5111 9.83331 26.0833 10.4833 27.3833 11.7833C28.6833 13.0833 29.3333 14.6555 29.3333 16.5C29.3333 18.3444 28.6833 19.9166 27.3833 21.2166C26.0833 22.5166 24.5111 23.1666 22.6667 23.1666H17.3333Z" fill="white"/>
</svg>
